<svg width="512" height="512" viewBox="0 0 512 512" fill="none" xmlns="http://www.w3.org/2000/svg"><defs><linearGradient id="silverGradient" x1="0%" y1="0%" x2="100%" y2="100%"><stop offset="0%" stop-color="#F0F0F0"/><stop offset="25%" stop-color="#FFFFFF"/><stop offset="50%" stop-color="#C8C8C8"/><stop offset="75%" stop-color="#E8E8E8"/><stop offset="100%" stop-color="#B0B0B0"/></linearGradient><linearGradient id="darkSilver" x1="0%" y1="0%" x2="100%" y2="100%"><stop offset="0%" stop-color="#A8A8A8"/><stop offset="50%" stop-color="#D4D4D4"/><stop offset="100%" stop-color="#909090"/></linearGradient><linearGradient id="highlightGradient" x1="0%" y1="0%" x2="0%" y2="100%"><stop offset="0%" stop-color="#FFFFFF" stop-opacity="0.8"/><stop offset="100%" stop-color="#FFFFFF" stop-opacity="0"/></linearGradient><radialGradient id="glowGradient" cx="50%" cy="50%" r="50%"><stop offset="0%" stop-color="#FFFFFF" stop-opacity="0.2"/><stop offset="100%" stop-color="#000000" stop-opacity="0"/></radialGradient><filter id="innerShadow"><feGaussianBlur in="SourceAlpha" stdDeviation="3"/><feOffset dx="2" dy="2" result="offsetblur"/><feComponentTransfer><feFuncA type="linear" slope="0.5"/></feComponentTransfer><feMerge><feMergeNode/><feMergeNode in="SourceGraphic"/></feMerge></filter><filter id="glow"><feGaussianBlur stdDeviation="6" result="coloredBlur"/><feMerge><feMergeNode in="coloredBlur"/><feMergeNode in="SourceGraphic"/></feMerge></filter></defs><rect width="512" height="512" fill="#000000" rx="96"/><circle cx="256" cy="280" r="220" fill="url(#glowGradient)" opacity="0.6"/><g filter="url(#glow)"><path d="M 170 380 L 240 140 L 270 140 L 200 380 Z" fill="url(#silverGradient)"/><path d="M 272 140 L 342 380 L 312 380 L 242 140 Z" fill="url(#silverGradient)"/><path d="M 215 280 L 297 280 L 293 300 L 211 300 Z" fill="url(#darkSilver)"/><path d="M 235 140 L 277 140 L 265 100 L 247 100 Z" fill="url(#silverGradient)"/><path d="M 175 370 L 242 145 L 245 145 L 178 370 Z" fill="url(#highlightGradient)" opacity="0.4"/><path d="M 267 145 L 334 370 L 337 370 L 270 145 Z" fill="url(#highlightGradient)" opacity="0.4"/></g><circle cx="145" cy="360" r="6" fill="url(#silverGradient)" opacity="0.7" filter="url(#glow)"/><circle cx="367" cy="360" r="6" fill="url(#silverGradient)" opacity="0.7" filter="url(#glow)"/><circle cx="256" cy="85" r="6" fill="url(#silverGradient)" opacity="0.7" filter="url(#glow)"/><line x1="145" y1="360" x2="175" y2="370" stroke="#888888" stroke-width="1" opacity="0.3"/><line x1="367" y1="360" x2="337" y2="370" stroke="#888888" stroke-width="1" opacity="0.3"/><line x1="256" y1="85" x2="256" y2="100" stroke="#888888" stroke-width="1" opacity="0.3"/><circle cx="256" cy="256" r="235" fill="none" stroke="url(#silverGradient)" stroke-width="1" opacity="0.15"/></svg>